<mxfile host="Electron" agent="Mozilla/5.0 (Windows NT 10.0; Win64; x64) AppleWebKit/537.36 (KHTML, like Gecko) draw.io/28.2.5 Chrome/138.0.7204.251 Electron/37.6.1 Safari/537.36" version="28.2.5" pages="6">
  <diagram name="Legende" id="Tc6GeqgDk_6OVEjo-huu">
    <mxGraphModel dx="1426" dy="841" grid="1" gridSize="10" guides="1" tooltips="1" connect="1" arrows="1" fold="1" page="1" pageScale="1" pageWidth="827" pageHeight="1169" math="0" shadow="0">
      <root>
        <mxCell id="0" />
        <mxCell id="1" parent="0" />
        <mxCell id="KZ9b_IHNDBtPh0gp9ouX-1" value="Lora System" style="rounded=0;whiteSpace=wrap;html=1;fillColor=#6a00ff;fontColor=#ffffff;strokeColor=#3700CC;" vertex="1" parent="1">
          <mxGeometry x="354" y="180" width="120" height="60" as="geometry" />
        </mxCell>
        <mxCell id="KZ9b_IHNDBtPh0gp9ouX-2" value="Die Dreieinigkeit aus Lora GPS, Lora Radio und Lora ESP." style="text;html=1;align=center;verticalAlign=middle;whiteSpace=wrap;rounded=0;" vertex="1" parent="1">
          <mxGeometry x="500" y="185" width="180" height="50" as="geometry" />
        </mxCell>
        <mxCell id="KZ9b_IHNDBtPh0gp9ouX-3" value="ESP SD" style="rounded=0;whiteSpace=wrap;html=1;fillColor=#d80073;fontColor=#ffffff;strokeColor=#A50040;" vertex="1" parent="1">
          <mxGeometry x="354" y="270" width="120" height="60" as="geometry" />
        </mxCell>
        <mxCell id="KZ9b_IHNDBtPh0gp9ouX-5" value="SD-Modul" style="rounded=0;whiteSpace=wrap;html=1;fillColor=#d80073;fontColor=#ffffff;strokeColor=#A50040;" vertex="1" parent="1">
          <mxGeometry x="354" y="360" width="120" height="60" as="geometry" />
        </mxCell>
        <mxCell id="KZ9b_IHNDBtPh0gp9ouX-6" value="Sensoren" style="rounded=0;whiteSpace=wrap;html=1;fillColor=#d80073;fontColor=#ffffff;strokeColor=#A50040;" vertex="1" parent="1">
          <mxGeometry x="354" y="450" width="120" height="60" as="geometry" />
        </mxCell>
        <mxCell id="KZ9b_IHNDBtPh0gp9ouX-7" value="Dieses beinhaltet das Spektrometer und den ADC mit allen seinen Sensoren" style="text;html=1;align=center;verticalAlign=middle;whiteSpace=wrap;rounded=0;" vertex="1" parent="1">
          <mxGeometry x="500" y="455" width="150" height="50" as="geometry" />
        </mxCell>
        <mxCell id="KZ9b_IHNDBtPh0gp9ouX-8" value="SD GPS" style="rounded=0;whiteSpace=wrap;html=1;fillColor=#d80073;fontColor=#ffffff;strokeColor=#A50040;" vertex="1" parent="1">
          <mxGeometry x="354" y="540" width="120" height="60" as="geometry" />
        </mxCell>
        <mxCell id="KZ9b_IHNDBtPh0gp9ouX-9" value="Es wird angenommen, dass wenn es ausdrücklich geschaltet wird, dass es dann dafür präpereiert wurde und wenn nicht dann nicht" style="text;html=1;align=center;verticalAlign=middle;whiteSpace=wrap;rounded=0;" vertex="1" parent="1">
          <mxGeometry x="500" y="537.5" width="190" height="65" as="geometry" />
        </mxCell>
        <mxCell id="KZ9b_IHNDBtPh0gp9ouX-10" value="ESP SMS" style="rounded=0;whiteSpace=wrap;html=1;fillColor=#0050ef;fontColor=#ffffff;strokeColor=#001DBC;" vertex="1" parent="1">
          <mxGeometry x="354" y="630" width="120" height="60" as="geometry" />
        </mxCell>
        <mxCell id="KZ9b_IHNDBtPh0gp9ouX-11" value="SMS Modul" style="rounded=0;whiteSpace=wrap;html=1;fillColor=#0050ef;fontColor=#ffffff;strokeColor=#001DBC;" vertex="1" parent="1">
          <mxGeometry x="354" y="720" width="120" height="60" as="geometry" />
        </mxCell>
        <mxCell id="KZ9b_IHNDBtPh0gp9ouX-12" value="SMS GPS" style="rounded=0;whiteSpace=wrap;html=1;fillColor=#0050ef;fontColor=#ffffff;strokeColor=#001DBC;" vertex="1" parent="1">
          <mxGeometry x="354" y="810" width="120" height="60" as="geometry" />
        </mxCell>
        <mxCell id="KZ9b_IHNDBtPh0gp9ouX-13" value="Dieses Modul wird immer nur nach bedarf ein und ausgeschaltet abhängig von y" style="text;html=1;align=center;verticalAlign=middle;whiteSpace=wrap;rounded=0;" vertex="1" parent="1">
          <mxGeometry x="500" y="810" width="180" height="60" as="geometry" />
        </mxCell>
        <mxCell id="KZ9b_IHNDBtPh0gp9ouX-14" value="Für die Stromversorgung kann das dafür vorgesehene Diagramm zurate genommen werden" style="text;html=1;align=center;verticalAlign=middle;whiteSpace=wrap;rounded=0;" vertex="1" parent="1">
          <mxGeometry y="1120" width="190" height="49" as="geometry" />
        </mxCell>
      </root>
    </mxGraphModel>
  </diagram>
  <diagram id="LaVhmu8SnMGuJaVkztHA" name="ist">
    <mxGraphModel dx="1426" dy="841" grid="1" gridSize="10" guides="1" tooltips="1" connect="1" arrows="1" fold="1" page="1" pageScale="1" pageWidth="827" pageHeight="1169" math="0" shadow="0">
      <root>
        <mxCell id="0" />
        <mxCell id="1" parent="0" />
        <mxCell id="_hEkvsbLwnO4Xi9VKZfa-1" value="Lora System" style="rounded=0;whiteSpace=wrap;html=1;fillColor=#6a00ff;fontColor=#ffffff;strokeColor=#3700CC;" vertex="1" parent="1">
          <mxGeometry x="580" y="160" width="120" height="60" as="geometry" />
        </mxCell>
        <mxCell id="_hEkvsbLwnO4Xi9VKZfa-14" style="edgeStyle=orthogonalEdgeStyle;rounded=0;orthogonalLoop=1;jettySize=auto;html=1;exitX=0.5;exitY=0;exitDx=0;exitDy=0;entryX=0.5;entryY=1;entryDx=0;entryDy=0;" edge="1" parent="1" source="_hEkvsbLwnO4Xi9VKZfa-3">
          <mxGeometry relative="1" as="geometry">
            <mxPoint x="300" y="80" as="targetPoint" />
          </mxGeometry>
        </mxCell>
        <mxCell id="cV9R82-biBjDGriNXLjp-1" style="edgeStyle=orthogonalEdgeStyle;rounded=0;orthogonalLoop=1;jettySize=auto;html=1;exitX=1;exitY=0.5;exitDx=0;exitDy=0;entryX=0;entryY=0.5;entryDx=0;entryDy=0;" edge="1" parent="1" source="_hEkvsbLwnO4Xi9VKZfa-3" target="_hEkvsbLwnO4Xi9VKZfa-1">
          <mxGeometry relative="1" as="geometry" />
        </mxCell>
        <mxCell id="_hEkvsbLwnO4Xi9VKZfa-3" value="SD ESP" style="rounded=0;whiteSpace=wrap;html=1;fillColor=#d80073;fontColor=#ffffff;strokeColor=#A50040;" vertex="1" parent="1">
          <mxGeometry x="240" y="160" width="120" height="60" as="geometry" />
        </mxCell>
        <mxCell id="_hEkvsbLwnO4Xi9VKZfa-4" value="SD-Modul" style="rounded=0;whiteSpace=wrap;html=1;fillColor=#d80073;fontColor=#ffffff;strokeColor=#A50040;" vertex="1" parent="1">
          <mxGeometry x="240" y="20" width="120" height="60" as="geometry" />
        </mxCell>
        <mxCell id="_hEkvsbLwnO4Xi9VKZfa-10" style="edgeStyle=orthogonalEdgeStyle;rounded=0;orthogonalLoop=1;jettySize=auto;html=1;exitX=1;exitY=0.5;exitDx=0;exitDy=0;entryX=0;entryY=0.5;entryDx=0;entryDy=0;" edge="1" parent="1" source="_hEkvsbLwnO4Xi9VKZfa-5" target="_hEkvsbLwnO4Xi9VKZfa-3">
          <mxGeometry relative="1" as="geometry" />
        </mxCell>
        <mxCell id="_hEkvsbLwnO4Xi9VKZfa-5" value="Sensoren" style="rounded=0;whiteSpace=wrap;html=1;fillColor=#d80073;fontColor=#ffffff;strokeColor=#A50040;" vertex="1" parent="1">
          <mxGeometry x="40" y="120" width="120" height="60" as="geometry" />
        </mxCell>
        <mxCell id="_hEkvsbLwnO4Xi9VKZfa-11" style="edgeStyle=orthogonalEdgeStyle;rounded=0;orthogonalLoop=1;jettySize=auto;html=1;exitX=1;exitY=0.5;exitDx=0;exitDy=0;entryX=0;entryY=0.5;entryDx=0;entryDy=0;" edge="1" parent="1" source="_hEkvsbLwnO4Xi9VKZfa-6" target="_hEkvsbLwnO4Xi9VKZfa-3">
          <mxGeometry relative="1" as="geometry" />
        </mxCell>
        <mxCell id="_hEkvsbLwnO4Xi9VKZfa-6" value="SD GPS" style="rounded=0;whiteSpace=wrap;html=1;fillColor=#d80073;fontColor=#ffffff;strokeColor=#A50040;" vertex="1" parent="1">
          <mxGeometry x="40" y="200" width="120" height="60" as="geometry" />
        </mxCell>
        <mxCell id="cV9R82-biBjDGriNXLjp-5" style="edgeStyle=orthogonalEdgeStyle;rounded=0;orthogonalLoop=1;jettySize=auto;html=1;exitX=1;exitY=0.5;exitDx=0;exitDy=0;entryX=0;entryY=0.5;entryDx=0;entryDy=0;" edge="1" parent="1" source="_hEkvsbLwnO4Xi9VKZfa-7" target="_hEkvsbLwnO4Xi9VKZfa-8">
          <mxGeometry relative="1" as="geometry" />
        </mxCell>
        <mxCell id="cV9R82-biBjDGriNXLjp-6" value="Position&amp;nbsp;&lt;div&gt;alle y min&lt;/div&gt;" style="edgeLabel;html=1;align=center;verticalAlign=middle;resizable=0;points=[];" vertex="1" connectable="0" parent="cV9R82-biBjDGriNXLjp-5">
          <mxGeometry x="0.15" y="-1" relative="1" as="geometry">
            <mxPoint as="offset" />
          </mxGeometry>
        </mxCell>
        <mxCell id="_hEkvsbLwnO4Xi9VKZfa-7" value="ESP SMS" style="rounded=0;whiteSpace=wrap;html=1;fillColor=#0050ef;fontColor=#ffffff;strokeColor=#001DBC;" vertex="1" parent="1">
          <mxGeometry x="240" y="370" width="120" height="60" as="geometry" />
        </mxCell>
        <mxCell id="_hEkvsbLwnO4Xi9VKZfa-8" value="SMS Modul" style="rounded=0;whiteSpace=wrap;html=1;fillColor=#0050ef;fontColor=#ffffff;strokeColor=#001DBC;" vertex="1" parent="1">
          <mxGeometry x="440" y="370" width="120" height="60" as="geometry" />
        </mxCell>
        <mxCell id="cV9R82-biBjDGriNXLjp-3" style="edgeStyle=orthogonalEdgeStyle;rounded=0;orthogonalLoop=1;jettySize=auto;html=1;exitX=1;exitY=0.5;exitDx=0;exitDy=0;entryX=0;entryY=0.5;entryDx=0;entryDy=0;" edge="1" parent="1" source="_hEkvsbLwnO4Xi9VKZfa-9" target="_hEkvsbLwnO4Xi9VKZfa-7">
          <mxGeometry relative="1" as="geometry" />
        </mxCell>
        <mxCell id="cV9R82-biBjDGriNXLjp-4" value="Daten" style="edgeLabel;html=1;align=center;verticalAlign=middle;resizable=0;points=[];" vertex="1" connectable="0" parent="cV9R82-biBjDGriNXLjp-3">
          <mxGeometry x="0.19" y="1" relative="1" as="geometry">
            <mxPoint as="offset" />
          </mxGeometry>
        </mxCell>
        <mxCell id="_hEkvsbLwnO4Xi9VKZfa-9" value="SMS GPS" style="rounded=0;whiteSpace=wrap;html=1;fillColor=#0050ef;fontColor=#ffffff;strokeColor=#001DBC;" vertex="1" parent="1">
          <mxGeometry x="40" y="370" width="120" height="60" as="geometry" />
        </mxCell>
        <mxCell id="_hEkvsbLwnO4Xi9VKZfa-12" value="Daten" style="text;html=1;align=center;verticalAlign=middle;resizable=0;points=[];autosize=1;strokeColor=none;fillColor=none;" vertex="1" parent="1">
          <mxGeometry x="150" y="175" width="60" height="30" as="geometry" />
        </mxCell>
        <mxCell id="_hEkvsbLwnO4Xi9VKZfa-15" value="Sensordaten mit sehr hoher Schreibrate" style="text;html=1;align=center;verticalAlign=middle;whiteSpace=wrap;rounded=0;" vertex="1" parent="1">
          <mxGeometry x="310" y="100" width="80" height="30" as="geometry" />
        </mxCell>
        <mxCell id="cV9R82-biBjDGriNXLjp-2" value="Daten mit min max und avg Werten alle x Minute" style="text;html=1;align=center;verticalAlign=middle;whiteSpace=wrap;rounded=0;" vertex="1" parent="1">
          <mxGeometry x="400" y="160" width="140" height="25" as="geometry" />
        </mxCell>
        <mxCell id="tIC2GLby2hs5EzDNQZEr-1" style="edgeStyle=orthogonalEdgeStyle;rounded=0;orthogonalLoop=1;jettySize=auto;html=1;exitX=0.25;exitY=1;exitDx=0;exitDy=0;entryX=0.75;entryY=1;entryDx=0;entryDy=0;" edge="1" parent="1" source="_hEkvsbLwnO4Xi9VKZfa-1" target="_hEkvsbLwnO4Xi9VKZfa-1">
          <mxGeometry relative="1" as="geometry" />
        </mxCell>
        <mxCell id="tIC2GLby2hs5EzDNQZEr-2" value="Position alle a minuten" style="edgeLabel;html=1;align=center;verticalAlign=middle;resizable=0;points=[];" vertex="1" connectable="0" parent="tIC2GLby2hs5EzDNQZEr-1">
          <mxGeometry x="0.28" y="-4" relative="1" as="geometry">
            <mxPoint x="-4" y="6" as="offset" />
          </mxGeometry>
        </mxCell>
      </root>
    </mxGraphModel>
  </diagram>
  <diagram id="sJC0ha2ewDVRgWsVs942" name="ist-verbessert">
    <mxGraphModel dx="1188" dy="701" grid="1" gridSize="10" guides="1" tooltips="1" connect="1" arrows="1" fold="1" page="1" pageScale="1" pageWidth="827" pageHeight="1169" math="0" shadow="0">
      <root>
        <mxCell id="0" />
        <mxCell id="1" parent="0" />
        <mxCell id="rnCRjz2oFBKvuRsnHKUW-1" value="Lora System" style="rounded=0;whiteSpace=wrap;html=1;fillColor=#6a00ff;fontColor=#ffffff;strokeColor=#3700CC;" vertex="1" parent="1">
          <mxGeometry x="610" y="370" width="120" height="60" as="geometry" />
        </mxCell>
        <mxCell id="rnCRjz2oFBKvuRsnHKUW-2" style="edgeStyle=orthogonalEdgeStyle;rounded=0;orthogonalLoop=1;jettySize=auto;html=1;exitX=0.5;exitY=0;exitDx=0;exitDy=0;entryX=0.5;entryY=1;entryDx=0;entryDy=0;" edge="1" parent="1" source="rnCRjz2oFBKvuRsnHKUW-4">
          <mxGeometry relative="1" as="geometry">
            <mxPoint x="330" y="290" as="targetPoint" />
          </mxGeometry>
        </mxCell>
        <mxCell id="rnCRjz2oFBKvuRsnHKUW-3" style="edgeStyle=orthogonalEdgeStyle;rounded=0;orthogonalLoop=1;jettySize=auto;html=1;exitX=1;exitY=0.5;exitDx=0;exitDy=0;entryX=0;entryY=0.5;entryDx=0;entryDy=0;" edge="1" parent="1" source="rnCRjz2oFBKvuRsnHKUW-4" target="rnCRjz2oFBKvuRsnHKUW-1">
          <mxGeometry relative="1" as="geometry" />
        </mxCell>
        <mxCell id="rnCRjz2oFBKvuRsnHKUW-20" style="edgeStyle=orthogonalEdgeStyle;rounded=0;orthogonalLoop=1;jettySize=auto;html=1;exitX=0.5;exitY=1;exitDx=0;exitDy=0;entryX=0.5;entryY=0;entryDx=0;entryDy=0;" edge="1" parent="1" source="rnCRjz2oFBKvuRsnHKUW-4" target="rnCRjz2oFBKvuRsnHKUW-12">
          <mxGeometry relative="1" as="geometry" />
        </mxCell>
        <mxCell id="rnCRjz2oFBKvuRsnHKUW-21" value="Daten mit min may und avg&lt;div&gt;alle z Minuten&lt;/div&gt;" style="edgeLabel;html=1;align=center;verticalAlign=middle;resizable=0;points=[];" vertex="1" connectable="0" parent="rnCRjz2oFBKvuRsnHKUW-20">
          <mxGeometry x="-0.6" relative="1" as="geometry">
            <mxPoint y="40" as="offset" />
          </mxGeometry>
        </mxCell>
        <mxCell id="rnCRjz2oFBKvuRsnHKUW-4" value="SD ESP" style="rounded=0;whiteSpace=wrap;html=1;fillColor=#d80073;fontColor=#ffffff;strokeColor=#A50040;" vertex="1" parent="1">
          <mxGeometry x="270" y="370" width="120" height="60" as="geometry" />
        </mxCell>
        <mxCell id="rnCRjz2oFBKvuRsnHKUW-5" value="SD-Modul" style="rounded=0;whiteSpace=wrap;html=1;fillColor=#d80073;fontColor=#ffffff;strokeColor=#A50040;" vertex="1" parent="1">
          <mxGeometry x="270" y="230" width="120" height="60" as="geometry" />
        </mxCell>
        <mxCell id="rnCRjz2oFBKvuRsnHKUW-6" style="edgeStyle=orthogonalEdgeStyle;rounded=0;orthogonalLoop=1;jettySize=auto;html=1;exitX=1;exitY=0.5;exitDx=0;exitDy=0;entryX=0;entryY=0.5;entryDx=0;entryDy=0;" edge="1" parent="1" source="rnCRjz2oFBKvuRsnHKUW-7" target="rnCRjz2oFBKvuRsnHKUW-4">
          <mxGeometry relative="1" as="geometry" />
        </mxCell>
        <mxCell id="rnCRjz2oFBKvuRsnHKUW-7" value="Sensoren" style="rounded=0;whiteSpace=wrap;html=1;fillColor=#d80073;fontColor=#ffffff;strokeColor=#A50040;" vertex="1" parent="1">
          <mxGeometry x="70" y="330" width="120" height="60" as="geometry" />
        </mxCell>
        <mxCell id="rnCRjz2oFBKvuRsnHKUW-8" style="edgeStyle=orthogonalEdgeStyle;rounded=0;orthogonalLoop=1;jettySize=auto;html=1;exitX=1;exitY=0.5;exitDx=0;exitDy=0;entryX=0;entryY=0.5;entryDx=0;entryDy=0;" edge="1" parent="1" source="rnCRjz2oFBKvuRsnHKUW-9" target="rnCRjz2oFBKvuRsnHKUW-4">
          <mxGeometry relative="1" as="geometry" />
        </mxCell>
        <mxCell id="rnCRjz2oFBKvuRsnHKUW-9" value="SD GPS" style="rounded=0;whiteSpace=wrap;html=1;fillColor=#d80073;fontColor=#ffffff;strokeColor=#A50040;" vertex="1" parent="1">
          <mxGeometry x="70" y="410" width="120" height="60" as="geometry" />
        </mxCell>
        <mxCell id="rnCRjz2oFBKvuRsnHKUW-10" style="edgeStyle=orthogonalEdgeStyle;rounded=0;orthogonalLoop=1;jettySize=auto;html=1;exitX=1;exitY=0.75;exitDx=0;exitDy=0;entryX=0;entryY=0.75;entryDx=0;entryDy=0;" edge="1" parent="1" source="rnCRjz2oFBKvuRsnHKUW-12" target="rnCRjz2oFBKvuRsnHKUW-13">
          <mxGeometry relative="1" as="geometry" />
        </mxCell>
        <mxCell id="rnCRjz2oFBKvuRsnHKUW-11" value="Position&amp;nbsp;&lt;div&gt;alle y min&lt;/div&gt;" style="edgeLabel;html=1;align=center;verticalAlign=middle;resizable=0;points=[];" vertex="1" connectable="0" parent="rnCRjz2oFBKvuRsnHKUW-10">
          <mxGeometry x="0.15" y="-1" relative="1" as="geometry">
            <mxPoint x="-6" y="14" as="offset" />
          </mxGeometry>
        </mxCell>
        <mxCell id="rnCRjz2oFBKvuRsnHKUW-22" style="edgeStyle=orthogonalEdgeStyle;rounded=0;orthogonalLoop=1;jettySize=auto;html=1;exitX=1;exitY=0.25;exitDx=0;exitDy=0;entryX=0;entryY=0.25;entryDx=0;entryDy=0;" edge="1" parent="1" source="rnCRjz2oFBKvuRsnHKUW-12" target="rnCRjz2oFBKvuRsnHKUW-13">
          <mxGeometry relative="1" as="geometry" />
        </mxCell>
        <mxCell id="rnCRjz2oFBKvuRsnHKUW-23" value="Weiterleiten&amp;nbsp;&lt;div&gt;der Daten&lt;/div&gt;" style="edgeLabel;html=1;align=center;verticalAlign=middle;resizable=0;points=[];" vertex="1" connectable="0" parent="rnCRjz2oFBKvuRsnHKUW-22">
          <mxGeometry x="0.1922" y="1" relative="1" as="geometry">
            <mxPoint x="-8" y="-14" as="offset" />
          </mxGeometry>
        </mxCell>
        <mxCell id="rnCRjz2oFBKvuRsnHKUW-12" value="ESP SMS" style="rounded=0;whiteSpace=wrap;html=1;fillColor=#0050ef;fontColor=#ffffff;strokeColor=#001DBC;" vertex="1" parent="1">
          <mxGeometry x="270" y="580" width="120" height="60" as="geometry" />
        </mxCell>
        <mxCell id="rnCRjz2oFBKvuRsnHKUW-13" value="SMS Modul" style="rounded=0;whiteSpace=wrap;html=1;fillColor=#0050ef;fontColor=#ffffff;strokeColor=#001DBC;" vertex="1" parent="1">
          <mxGeometry x="470" y="580" width="120" height="60" as="geometry" />
        </mxCell>
        <mxCell id="rnCRjz2oFBKvuRsnHKUW-14" style="edgeStyle=orthogonalEdgeStyle;rounded=0;orthogonalLoop=1;jettySize=auto;html=1;exitX=1;exitY=0.5;exitDx=0;exitDy=0;entryX=0;entryY=0.5;entryDx=0;entryDy=0;" edge="1" parent="1" source="rnCRjz2oFBKvuRsnHKUW-16" target="rnCRjz2oFBKvuRsnHKUW-12">
          <mxGeometry relative="1" as="geometry" />
        </mxCell>
        <mxCell id="rnCRjz2oFBKvuRsnHKUW-15" value="Daten" style="edgeLabel;html=1;align=center;verticalAlign=middle;resizable=0;points=[];" vertex="1" connectable="0" parent="rnCRjz2oFBKvuRsnHKUW-14">
          <mxGeometry x="0.19" y="1" relative="1" as="geometry">
            <mxPoint as="offset" />
          </mxGeometry>
        </mxCell>
        <mxCell id="rnCRjz2oFBKvuRsnHKUW-16" value="SMS GPS" style="rounded=0;whiteSpace=wrap;html=1;fillColor=#0050ef;fontColor=#ffffff;strokeColor=#001DBC;" vertex="1" parent="1">
          <mxGeometry x="70" y="580" width="120" height="60" as="geometry" />
        </mxCell>
        <mxCell id="rnCRjz2oFBKvuRsnHKUW-17" value="Daten" style="text;html=1;align=center;verticalAlign=middle;resizable=0;points=[];autosize=1;strokeColor=none;fillColor=none;" vertex="1" parent="1">
          <mxGeometry x="180" y="385" width="60" height="30" as="geometry" />
        </mxCell>
        <mxCell id="rnCRjz2oFBKvuRsnHKUW-18" value="Sensordaten mit sehr hoher Schreibrate" style="text;html=1;align=center;verticalAlign=middle;whiteSpace=wrap;rounded=0;" vertex="1" parent="1">
          <mxGeometry x="340" y="310" width="80" height="30" as="geometry" />
        </mxCell>
        <mxCell id="rnCRjz2oFBKvuRsnHKUW-19" value="Daten mit min max und avg Werten alle x Minute" style="text;html=1;align=center;verticalAlign=middle;whiteSpace=wrap;rounded=0;" vertex="1" parent="1">
          <mxGeometry x="430" y="370" width="140" height="25" as="geometry" />
        </mxCell>
        <mxCell id="rnCRjz2oFBKvuRsnHKUW-24" value="Pro:&lt;div&gt;- Daten werden redundant gesendet&lt;/div&gt;&lt;div&gt;- Position wird redundant gesendet&lt;/div&gt;&lt;div&gt;&lt;br&gt;&lt;/div&gt;&lt;div&gt;Con:&lt;/div&gt;&lt;div&gt;- wenn y und z zu hoch sind, steigen die Kosten&lt;/div&gt;&lt;div&gt;- wenn zum Höhepunkt des Fluges beide Funkverbindungen abreißen verpassen wir die Daten&amp;nbsp;&lt;/div&gt;" style="text;html=1;align=left;verticalAlign=top;whiteSpace=wrap;rounded=0;labelPosition=center;verticalLabelPosition=middle;" vertex="1" parent="1">
          <mxGeometry x="190" y="710" width="300" height="140" as="geometry" />
        </mxCell>
        <mxCell id="gw3xCfTHiwMWtKFm-jFs-1" style="edgeStyle=orthogonalEdgeStyle;rounded=0;orthogonalLoop=1;jettySize=auto;html=1;exitX=0.25;exitY=1;exitDx=0;exitDy=0;entryX=0.75;entryY=1;entryDx=0;entryDy=0;" edge="1" parent="1" source="rnCRjz2oFBKvuRsnHKUW-1" target="rnCRjz2oFBKvuRsnHKUW-1">
          <mxGeometry relative="1" as="geometry">
            <mxPoint x="680" y="500" as="sourcePoint" />
            <mxPoint x="740" y="500" as="targetPoint" />
          </mxGeometry>
        </mxCell>
        <mxCell id="gw3xCfTHiwMWtKFm-jFs-2" value="Position alle a minuten" style="edgeLabel;html=1;align=center;verticalAlign=middle;resizable=0;points=[];" vertex="1" connectable="0" parent="gw3xCfTHiwMWtKFm-jFs-1">
          <mxGeometry x="0.28" y="-4" relative="1" as="geometry">
            <mxPoint x="-4" y="6" as="offset" />
          </mxGeometry>
        </mxCell>
      </root>
    </mxGraphModel>
  </diagram>
  <diagram id="Q-CEbd6cKSQEhO7zfRxK" name="ist-noch-besser">
    <mxGraphModel dx="1678" dy="989" grid="1" gridSize="10" guides="1" tooltips="1" connect="1" arrows="1" fold="1" page="1" pageScale="1" pageWidth="827" pageHeight="1169" math="0" shadow="0">
      <root>
        <mxCell id="0" />
        <mxCell id="1" parent="0" />
        <mxCell id="QGWdNKiRIGCm_ujxkBH4-3" style="edgeStyle=orthogonalEdgeStyle;rounded=0;orthogonalLoop=1;jettySize=auto;html=1;exitX=0;exitY=0.75;exitDx=0;exitDy=0;entryX=1;entryY=0.75;entryDx=0;entryDy=0;" edge="1" parent="1" source="3Tvs6BmdyDdxOcNogsLd-1" target="3Tvs6BmdyDdxOcNogsLd-6">
          <mxGeometry relative="1" as="geometry" />
        </mxCell>
        <mxCell id="QGWdNKiRIGCm_ujxkBH4-4" value="weiterleiten von&amp;nbsp;&lt;div&gt;empfangenen Befehlen&lt;/div&gt;" style="edgeLabel;html=1;align=center;verticalAlign=middle;resizable=0;points=[];" vertex="1" connectable="0" parent="QGWdNKiRIGCm_ujxkBH4-3">
          <mxGeometry x="0.2169" y="2" relative="1" as="geometry">
            <mxPoint x="14" y="13" as="offset" />
          </mxGeometry>
        </mxCell>
        <mxCell id="3Tvs6BmdyDdxOcNogsLd-1" value="Lora System" style="rounded=0;whiteSpace=wrap;html=1;fillColor=#6a00ff;fontColor=#ffffff;strokeColor=#3700CC;" vertex="1" parent="1">
          <mxGeometry x="580" y="200" width="120" height="60" as="geometry" />
        </mxCell>
        <mxCell id="3Tvs6BmdyDdxOcNogsLd-2" style="edgeStyle=orthogonalEdgeStyle;rounded=0;orthogonalLoop=1;jettySize=auto;html=1;exitX=0.5;exitY=0;exitDx=0;exitDy=0;entryX=0.5;entryY=1;entryDx=0;entryDy=0;" edge="1" parent="1" source="3Tvs6BmdyDdxOcNogsLd-6">
          <mxGeometry relative="1" as="geometry">
            <mxPoint x="300" y="120" as="targetPoint" />
          </mxGeometry>
        </mxCell>
        <mxCell id="3Tvs6BmdyDdxOcNogsLd-3" style="edgeStyle=orthogonalEdgeStyle;rounded=0;orthogonalLoop=1;jettySize=auto;html=1;exitX=1;exitY=0.25;exitDx=0;exitDy=0;entryX=0;entryY=0.25;entryDx=0;entryDy=0;" edge="1" parent="1" source="3Tvs6BmdyDdxOcNogsLd-6" target="3Tvs6BmdyDdxOcNogsLd-1">
          <mxGeometry relative="1" as="geometry" />
        </mxCell>
        <mxCell id="3Tvs6BmdyDdxOcNogsLd-6" value="SD ESP" style="rounded=0;whiteSpace=wrap;html=1;fillColor=#d80073;fontColor=#ffffff;strokeColor=#A50040;" vertex="1" parent="1">
          <mxGeometry x="240" y="200" width="120" height="60" as="geometry" />
        </mxCell>
        <mxCell id="3Tvs6BmdyDdxOcNogsLd-7" value="SD-Modul" style="rounded=0;whiteSpace=wrap;html=1;fillColor=#d80073;fontColor=#ffffff;strokeColor=#A50040;" vertex="1" parent="1">
          <mxGeometry x="240" y="60" width="120" height="60" as="geometry" />
        </mxCell>
        <mxCell id="3Tvs6BmdyDdxOcNogsLd-8" style="edgeStyle=orthogonalEdgeStyle;rounded=0;orthogonalLoop=1;jettySize=auto;html=1;exitX=1;exitY=0.5;exitDx=0;exitDy=0;entryX=0;entryY=0.5;entryDx=0;entryDy=0;" edge="1" parent="1" source="3Tvs6BmdyDdxOcNogsLd-9" target="3Tvs6BmdyDdxOcNogsLd-6">
          <mxGeometry relative="1" as="geometry" />
        </mxCell>
        <mxCell id="3Tvs6BmdyDdxOcNogsLd-9" value="Sensoren" style="rounded=0;whiteSpace=wrap;html=1;fillColor=#d80073;fontColor=#ffffff;strokeColor=#A50040;" vertex="1" parent="1">
          <mxGeometry x="40" y="160" width="120" height="60" as="geometry" />
        </mxCell>
        <mxCell id="3Tvs6BmdyDdxOcNogsLd-10" style="edgeStyle=orthogonalEdgeStyle;rounded=0;orthogonalLoop=1;jettySize=auto;html=1;exitX=1;exitY=0.5;exitDx=0;exitDy=0;entryX=0;entryY=0.5;entryDx=0;entryDy=0;" edge="1" parent="1" source="3Tvs6BmdyDdxOcNogsLd-11" target="3Tvs6BmdyDdxOcNogsLd-6">
          <mxGeometry relative="1" as="geometry" />
        </mxCell>
        <mxCell id="3Tvs6BmdyDdxOcNogsLd-11" value="SD GPS" style="rounded=0;whiteSpace=wrap;html=1;fillColor=#d80073;fontColor=#ffffff;strokeColor=#A50040;" vertex="1" parent="1">
          <mxGeometry x="40" y="240" width="120" height="60" as="geometry" />
        </mxCell>
        <mxCell id="3Tvs6BmdyDdxOcNogsLd-12" style="edgeStyle=orthogonalEdgeStyle;rounded=0;orthogonalLoop=1;jettySize=auto;html=1;exitX=1;exitY=0.5;exitDx=0;exitDy=0;entryX=0;entryY=0.5;entryDx=0;entryDy=0;" edge="1" parent="1" source="3Tvs6BmdyDdxOcNogsLd-16" target="3Tvs6BmdyDdxOcNogsLd-17">
          <mxGeometry relative="1" as="geometry" />
        </mxCell>
        <mxCell id="3Tvs6BmdyDdxOcNogsLd-13" value="Position&amp;nbsp;&lt;div&gt;alle y min&lt;/div&gt;" style="edgeLabel;html=1;align=center;verticalAlign=middle;resizable=0;points=[];" vertex="1" connectable="0" parent="3Tvs6BmdyDdxOcNogsLd-12">
          <mxGeometry x="0.15" y="-1" relative="1" as="geometry">
            <mxPoint x="-6" y="14" as="offset" />
          </mxGeometry>
        </mxCell>
        <mxCell id="3Tvs6BmdyDdxOcNogsLd-16" value="ESP SMS" style="rounded=0;whiteSpace=wrap;html=1;fillColor=#0050ef;fontColor=#ffffff;strokeColor=#001DBC;" vertex="1" parent="1">
          <mxGeometry x="240" y="410" width="120" height="60" as="geometry" />
        </mxCell>
        <mxCell id="3Tvs6BmdyDdxOcNogsLd-17" value="SMS Modul" style="rounded=0;whiteSpace=wrap;html=1;fillColor=#0050ef;fontColor=#ffffff;strokeColor=#001DBC;" vertex="1" parent="1">
          <mxGeometry x="440" y="410" width="120" height="60" as="geometry" />
        </mxCell>
        <mxCell id="3Tvs6BmdyDdxOcNogsLd-18" style="edgeStyle=orthogonalEdgeStyle;rounded=0;orthogonalLoop=1;jettySize=auto;html=1;exitX=1;exitY=0.5;exitDx=0;exitDy=0;entryX=0;entryY=0.5;entryDx=0;entryDy=0;" edge="1" parent="1" source="3Tvs6BmdyDdxOcNogsLd-20" target="3Tvs6BmdyDdxOcNogsLd-16">
          <mxGeometry relative="1" as="geometry" />
        </mxCell>
        <mxCell id="3Tvs6BmdyDdxOcNogsLd-19" value="Daten" style="edgeLabel;html=1;align=center;verticalAlign=middle;resizable=0;points=[];" vertex="1" connectable="0" parent="3Tvs6BmdyDdxOcNogsLd-18">
          <mxGeometry x="0.19" y="1" relative="1" as="geometry">
            <mxPoint as="offset" />
          </mxGeometry>
        </mxCell>
        <mxCell id="3Tvs6BmdyDdxOcNogsLd-20" value="SMS GPS" style="rounded=0;whiteSpace=wrap;html=1;fillColor=#0050ef;fontColor=#ffffff;strokeColor=#001DBC;" vertex="1" parent="1">
          <mxGeometry x="40" y="410" width="120" height="60" as="geometry" />
        </mxCell>
        <mxCell id="3Tvs6BmdyDdxOcNogsLd-21" value="Daten" style="text;html=1;align=center;verticalAlign=middle;resizable=0;points=[];autosize=1;strokeColor=none;fillColor=none;" vertex="1" parent="1">
          <mxGeometry x="150" y="215" width="60" height="30" as="geometry" />
        </mxCell>
        <mxCell id="3Tvs6BmdyDdxOcNogsLd-22" value="Sensordaten mit sehr hoher Schreibrate" style="text;html=1;align=center;verticalAlign=middle;whiteSpace=wrap;rounded=0;" vertex="1" parent="1">
          <mxGeometry x="310" y="140" width="80" height="30" as="geometry" />
        </mxCell>
        <mxCell id="3Tvs6BmdyDdxOcNogsLd-23" value="Daten mit min max und avg Werten alle x Minute" style="text;html=1;align=center;verticalAlign=middle;whiteSpace=wrap;rounded=0;" vertex="1" parent="1">
          <mxGeometry x="400" y="180" width="140" height="25" as="geometry" />
        </mxCell>
        <mxCell id="3Tvs6BmdyDdxOcNogsLd-24" value="&lt;div&gt;Wir könnne von der Bodenstation aus Befehle senden. Daurch können wir z.B. einen Dump der gesammelten Daten anfordern oder uns einzelne Pakete nochmal senden lassen.&amp;nbsp;&lt;/div&gt;&lt;div&gt;&lt;br&gt;&lt;/div&gt;Pro:&lt;div&gt;&lt;span style=&quot;background-color: transparent; color: light-dark(rgb(0, 0, 0), rgb(255, 255, 255));&quot;&gt;- Position wird redundant gesendet&lt;/span&gt;&lt;/div&gt;&lt;div&gt;- Daten können abgefragt werden&lt;/div&gt;&lt;div&gt;- wir kommen an alle Daten ohne an die SD zu kommen&lt;/div&gt;&lt;div&gt;&lt;br&gt;&lt;/div&gt;&lt;div&gt;&lt;br&gt;&lt;/div&gt;&lt;div&gt;zusätzlich können dann wenn wir es wollen:&lt;/div&gt;&lt;div&gt;Befehle per SMS senden und so redundant an die Daten zu kommen -&amp;gt; Teuer und SD ESP als Single point of failure&amp;nbsp;&lt;/div&gt;&lt;div&gt;&lt;br&gt;&lt;/div&gt;" style="text;html=1;align=left;verticalAlign=top;whiteSpace=wrap;rounded=0;labelPosition=center;verticalLabelPosition=middle;" vertex="1" parent="1">
          <mxGeometry x="150" y="515" width="300" height="225" as="geometry" />
        </mxCell>
        <mxCell id="QGWdNKiRIGCm_ujxkBH4-1" style="edgeStyle=orthogonalEdgeStyle;rounded=0;orthogonalLoop=1;jettySize=auto;html=1;exitX=0.25;exitY=1;exitDx=0;exitDy=0;entryX=0.75;entryY=1;entryDx=0;entryDy=0;" edge="1" parent="1" source="3Tvs6BmdyDdxOcNogsLd-1" target="3Tvs6BmdyDdxOcNogsLd-1">
          <mxGeometry relative="1" as="geometry">
            <mxPoint x="570" y="350" as="sourcePoint" />
            <mxPoint x="630" y="350" as="targetPoint" />
          </mxGeometry>
        </mxCell>
        <mxCell id="QGWdNKiRIGCm_ujxkBH4-2" value="Position alle a minuten" style="edgeLabel;html=1;align=center;verticalAlign=middle;resizable=0;points=[];" vertex="1" connectable="0" parent="QGWdNKiRIGCm_ujxkBH4-1">
          <mxGeometry x="0.28" y="-4" relative="1" as="geometry">
            <mxPoint x="-4" y="6" as="offset" />
          </mxGeometry>
        </mxCell>
      </root>
    </mxGraphModel>
  </diagram>
  <diagram id="fmEJ6oLprV0UwqJhsqVw" name="ist Kombi">
    <mxGraphModel dx="983" dy="580" grid="1" gridSize="10" guides="1" tooltips="1" connect="1" arrows="1" fold="1" page="1" pageScale="1" pageWidth="827" pageHeight="1169" math="0" shadow="0">
      <root>
        <mxCell id="0" />
        <mxCell id="1" parent="0" />
        <mxCell id="3hixRqDwIOyW1S71FYZW-1" style="edgeStyle=orthogonalEdgeStyle;rounded=0;orthogonalLoop=1;jettySize=auto;html=1;exitX=0;exitY=0.75;exitDx=0;exitDy=0;entryX=1;entryY=0.75;entryDx=0;entryDy=0;" edge="1" parent="1" source="3hixRqDwIOyW1S71FYZW-3" target="3hixRqDwIOyW1S71FYZW-6">
          <mxGeometry relative="1" as="geometry" />
        </mxCell>
        <mxCell id="3hixRqDwIOyW1S71FYZW-2" value="weiterleiten von&amp;nbsp;&lt;div&gt;empfangenen Befehlen&lt;/div&gt;" style="edgeLabel;html=1;align=center;verticalAlign=middle;resizable=0;points=[];" vertex="1" connectable="0" parent="3hixRqDwIOyW1S71FYZW-1">
          <mxGeometry x="0.2169" y="2" relative="1" as="geometry">
            <mxPoint x="14" y="13" as="offset" />
          </mxGeometry>
        </mxCell>
        <mxCell id="3hixRqDwIOyW1S71FYZW-3" value="Lora System" style="rounded=0;whiteSpace=wrap;html=1;fillColor=#6a00ff;fontColor=#ffffff;strokeColor=#3700CC;" vertex="1" parent="1">
          <mxGeometry x="600" y="190" width="120" height="60" as="geometry" />
        </mxCell>
        <mxCell id="3hixRqDwIOyW1S71FYZW-4" style="edgeStyle=orthogonalEdgeStyle;rounded=0;orthogonalLoop=1;jettySize=auto;html=1;exitX=0.5;exitY=0;exitDx=0;exitDy=0;entryX=0.5;entryY=1;entryDx=0;entryDy=0;" edge="1" parent="1" source="3hixRqDwIOyW1S71FYZW-6">
          <mxGeometry relative="1" as="geometry">
            <mxPoint x="320" y="110" as="targetPoint" />
          </mxGeometry>
        </mxCell>
        <mxCell id="3hixRqDwIOyW1S71FYZW-5" style="edgeStyle=orthogonalEdgeStyle;rounded=0;orthogonalLoop=1;jettySize=auto;html=1;exitX=1;exitY=0.25;exitDx=0;exitDy=0;entryX=0;entryY=0.25;entryDx=0;entryDy=0;" edge="1" parent="1" source="3hixRqDwIOyW1S71FYZW-6" target="3hixRqDwIOyW1S71FYZW-3">
          <mxGeometry relative="1" as="geometry" />
        </mxCell>
        <mxCell id="3hixRqDwIOyW1S71FYZW-25" style="edgeStyle=orthogonalEdgeStyle;rounded=0;orthogonalLoop=1;jettySize=auto;html=1;exitX=0.5;exitY=1;exitDx=0;exitDy=0;entryX=0.5;entryY=0;entryDx=0;entryDy=0;" edge="1" parent="1" source="3hixRqDwIOyW1S71FYZW-6" target="3hixRqDwIOyW1S71FYZW-14">
          <mxGeometry relative="1" as="geometry" />
        </mxCell>
        <mxCell id="7ChK0sZU4tw-OejnQ_Jm-1" value="Daten mit min may und avg&lt;div&gt;alle z Minuten&lt;/div&gt;" style="edgeLabel;html=1;align=center;verticalAlign=middle;resizable=0;points=[];" vertex="1" connectable="0" parent="3hixRqDwIOyW1S71FYZW-25">
          <mxGeometry x="-0.0023" y="2" relative="1" as="geometry">
            <mxPoint as="offset" />
          </mxGeometry>
        </mxCell>
        <mxCell id="3hixRqDwIOyW1S71FYZW-6" value="SD ESP" style="rounded=0;whiteSpace=wrap;html=1;fillColor=#d80073;fontColor=#ffffff;strokeColor=#A50040;" vertex="1" parent="1">
          <mxGeometry x="260" y="190" width="120" height="60" as="geometry" />
        </mxCell>
        <mxCell id="3hixRqDwIOyW1S71FYZW-7" value="SD-Modul" style="rounded=0;whiteSpace=wrap;html=1;fillColor=#d80073;fontColor=#ffffff;strokeColor=#A50040;" vertex="1" parent="1">
          <mxGeometry x="260" y="50" width="120" height="60" as="geometry" />
        </mxCell>
        <mxCell id="3hixRqDwIOyW1S71FYZW-8" style="edgeStyle=orthogonalEdgeStyle;rounded=0;orthogonalLoop=1;jettySize=auto;html=1;exitX=1;exitY=0.5;exitDx=0;exitDy=0;entryX=0;entryY=0.5;entryDx=0;entryDy=0;" edge="1" parent="1" source="3hixRqDwIOyW1S71FYZW-9" target="3hixRqDwIOyW1S71FYZW-6">
          <mxGeometry relative="1" as="geometry" />
        </mxCell>
        <mxCell id="3hixRqDwIOyW1S71FYZW-9" value="Sensoren" style="rounded=0;whiteSpace=wrap;html=1;fillColor=#d80073;fontColor=#ffffff;strokeColor=#A50040;" vertex="1" parent="1">
          <mxGeometry x="60" y="150" width="120" height="60" as="geometry" />
        </mxCell>
        <mxCell id="3hixRqDwIOyW1S71FYZW-10" style="edgeStyle=orthogonalEdgeStyle;rounded=0;orthogonalLoop=1;jettySize=auto;html=1;exitX=1;exitY=0.5;exitDx=0;exitDy=0;entryX=0;entryY=0.5;entryDx=0;entryDy=0;" edge="1" parent="1" source="3hixRqDwIOyW1S71FYZW-11" target="3hixRqDwIOyW1S71FYZW-6">
          <mxGeometry relative="1" as="geometry" />
        </mxCell>
        <mxCell id="3hixRqDwIOyW1S71FYZW-11" value="SD GPS" style="rounded=0;whiteSpace=wrap;html=1;fillColor=#d80073;fontColor=#ffffff;strokeColor=#A50040;" vertex="1" parent="1">
          <mxGeometry x="60" y="230" width="120" height="60" as="geometry" />
        </mxCell>
        <mxCell id="3hixRqDwIOyW1S71FYZW-12" style="edgeStyle=orthogonalEdgeStyle;rounded=0;orthogonalLoop=1;jettySize=auto;html=1;exitX=1;exitY=0.75;exitDx=0;exitDy=0;entryX=0;entryY=0.75;entryDx=0;entryDy=0;" edge="1" parent="1" source="3hixRqDwIOyW1S71FYZW-14" target="3hixRqDwIOyW1S71FYZW-15">
          <mxGeometry relative="1" as="geometry" />
        </mxCell>
        <mxCell id="3hixRqDwIOyW1S71FYZW-13" value="Position&amp;nbsp;&lt;div&gt;alle y min&lt;/div&gt;" style="edgeLabel;html=1;align=center;verticalAlign=middle;resizable=0;points=[];" vertex="1" connectable="0" parent="3hixRqDwIOyW1S71FYZW-12">
          <mxGeometry x="0.15" y="-1" relative="1" as="geometry">
            <mxPoint x="-6" y="14" as="offset" />
          </mxGeometry>
        </mxCell>
        <mxCell id="3hixRqDwIOyW1S71FYZW-14" value="ESP SMS" style="rounded=0;whiteSpace=wrap;html=1;fillColor=#0050ef;fontColor=#ffffff;strokeColor=#001DBC;" vertex="1" parent="1">
          <mxGeometry x="260" y="400" width="120" height="60" as="geometry" />
        </mxCell>
        <mxCell id="3hixRqDwIOyW1S71FYZW-15" value="SMS Modul" style="rounded=0;whiteSpace=wrap;html=1;fillColor=#0050ef;fontColor=#ffffff;strokeColor=#001DBC;" vertex="1" parent="1">
          <mxGeometry x="460" y="400" width="120" height="60" as="geometry" />
        </mxCell>
        <mxCell id="3hixRqDwIOyW1S71FYZW-16" style="edgeStyle=orthogonalEdgeStyle;rounded=0;orthogonalLoop=1;jettySize=auto;html=1;exitX=1;exitY=0.5;exitDx=0;exitDy=0;entryX=0;entryY=0.5;entryDx=0;entryDy=0;" edge="1" parent="1" source="3hixRqDwIOyW1S71FYZW-18" target="3hixRqDwIOyW1S71FYZW-14">
          <mxGeometry relative="1" as="geometry" />
        </mxCell>
        <mxCell id="3hixRqDwIOyW1S71FYZW-17" value="Daten" style="edgeLabel;html=1;align=center;verticalAlign=middle;resizable=0;points=[];" vertex="1" connectable="0" parent="3hixRqDwIOyW1S71FYZW-16">
          <mxGeometry x="0.19" y="1" relative="1" as="geometry">
            <mxPoint as="offset" />
          </mxGeometry>
        </mxCell>
        <mxCell id="3hixRqDwIOyW1S71FYZW-18" value="SMS GPS" style="rounded=0;whiteSpace=wrap;html=1;fillColor=#0050ef;fontColor=#ffffff;strokeColor=#001DBC;" vertex="1" parent="1">
          <mxGeometry x="60" y="400" width="120" height="60" as="geometry" />
        </mxCell>
        <mxCell id="3hixRqDwIOyW1S71FYZW-19" value="Daten" style="text;html=1;align=center;verticalAlign=middle;resizable=0;points=[];autosize=1;strokeColor=none;fillColor=none;" vertex="1" parent="1">
          <mxGeometry x="170" y="205" width="60" height="30" as="geometry" />
        </mxCell>
        <mxCell id="3hixRqDwIOyW1S71FYZW-20" value="Sensordaten mit sehr hoher Schreibrate" style="text;html=1;align=center;verticalAlign=middle;whiteSpace=wrap;rounded=0;" vertex="1" parent="1">
          <mxGeometry x="330" y="130" width="80" height="30" as="geometry" />
        </mxCell>
        <mxCell id="3hixRqDwIOyW1S71FYZW-21" value="Daten mit min max und avg Werten alle x Minute und Antworten auf Befehle" style="text;html=1;align=center;verticalAlign=middle;whiteSpace=wrap;rounded=0;" vertex="1" parent="1">
          <mxGeometry x="420" y="150" width="140" height="45" as="geometry" />
        </mxCell>
        <mxCell id="3hixRqDwIOyW1S71FYZW-22" value="&lt;div&gt;geht auch und verbindet die vor und Nachteile&lt;/div&gt;&lt;div&gt;&lt;br&gt;&lt;/div&gt;" style="text;html=1;align=left;verticalAlign=top;whiteSpace=wrap;rounded=0;labelPosition=center;verticalLabelPosition=middle;" vertex="1" parent="1">
          <mxGeometry x="170" y="505" width="260" height="25" as="geometry" />
        </mxCell>
        <mxCell id="3hixRqDwIOyW1S71FYZW-23" style="edgeStyle=orthogonalEdgeStyle;rounded=0;orthogonalLoop=1;jettySize=auto;html=1;exitX=0.25;exitY=1;exitDx=0;exitDy=0;entryX=0.75;entryY=1;entryDx=0;entryDy=0;" edge="1" parent="1" source="3hixRqDwIOyW1S71FYZW-3" target="3hixRqDwIOyW1S71FYZW-3">
          <mxGeometry relative="1" as="geometry">
            <mxPoint x="590" y="340" as="sourcePoint" />
            <mxPoint x="650" y="340" as="targetPoint" />
          </mxGeometry>
        </mxCell>
        <mxCell id="3hixRqDwIOyW1S71FYZW-24" value="Position alle a minuten" style="edgeLabel;html=1;align=center;verticalAlign=middle;resizable=0;points=[];" vertex="1" connectable="0" parent="3hixRqDwIOyW1S71FYZW-23">
          <mxGeometry x="0.28" y="-4" relative="1" as="geometry">
            <mxPoint x="-4" y="6" as="offset" />
          </mxGeometry>
        </mxCell>
        <mxCell id="qUzBIEmrlTvpOnrvgrqq-1" style="edgeStyle=orthogonalEdgeStyle;rounded=0;orthogonalLoop=1;jettySize=auto;html=1;exitX=1;exitY=0.25;exitDx=0;exitDy=0;entryX=0;entryY=0.25;entryDx=0;entryDy=0;" edge="1" parent="1" source="3hixRqDwIOyW1S71FYZW-14" target="3hixRqDwIOyW1S71FYZW-15">
          <mxGeometry relative="1" as="geometry">
            <mxPoint x="420" y="360" as="sourcePoint" />
            <mxPoint x="500" y="360" as="targetPoint" />
          </mxGeometry>
        </mxCell>
        <mxCell id="qUzBIEmrlTvpOnrvgrqq-2" value="Weiterleiten&amp;nbsp;&lt;div&gt;der Daten&lt;/div&gt;" style="edgeLabel;html=1;align=center;verticalAlign=middle;resizable=0;points=[];" vertex="1" connectable="0" parent="qUzBIEmrlTvpOnrvgrqq-1">
          <mxGeometry x="0.1922" y="1" relative="1" as="geometry">
            <mxPoint x="-8" y="-14" as="offset" />
          </mxGeometry>
        </mxCell>
      </root>
    </mxGraphModel>
  </diagram>
  <diagram id="5mYoZCaNLEOVAOtIGvnT" name="Überlegungen">
    <mxGraphModel dx="1426" dy="841" grid="1" gridSize="10" guides="1" tooltips="1" connect="1" arrows="1" fold="1" page="1" pageScale="1" pageWidth="827" pageHeight="1169" math="0" shadow="0">
      <root>
        <mxCell id="0" />
        <mxCell id="1" parent="0" />
        <mxCell id="vyh8YAEJ0byEIN-sm19U-1" value="Man könnte beim abstige Automatisch die kompletten Daten nochmal senden.&amp;nbsp;&lt;div&gt;&lt;br&gt;&lt;/div&gt;&lt;div&gt;Pro:&lt;/div&gt;&lt;div&gt;Redundanz wenn Befehle nicht gesendet empfangen werdne können.&lt;/div&gt;&lt;div&gt;&lt;br&gt;&lt;/div&gt;&lt;div&gt;Con:&lt;/div&gt;&lt;div&gt;kann zu Problemen mit der maximalen legalen uptime von Lora führen(wenn das Modul zu viel senden soll, sendet es irgendwann nicht mehr)&lt;/div&gt;" style="text;html=1;align=left;verticalAlign=middle;resizable=0;points=[];autosize=1;strokeColor=none;fillColor=none;" vertex="1" parent="1">
          <mxGeometry x="20" y="208" width="780" height="110" as="geometry" />
        </mxCell>
      </root>
    </mxGraphModel>
  </diagram>
</mxfile>
